ply
format ascii 1.0
comment Created by Blender 2.73 (sub 0) - www.blender.org, source file: 'Charger.blend'
element vertex 112
property float x
property float y
property float z
property float nx
property float ny
property float nz
property uchar red
property uchar green
property uchar blue
element face 31
property list uchar uint vertex_indices
end_header
1.539999 0.628086 -1.539999 0.000000 1.000000 0.000000 37 132 232
-1.539999 0.628086 -1.539999 0.000000 1.000000 0.000000 37 132 232
-1.539999 0.628086 1.539999 0.000000 1.000000 0.000000 37 132 232
1.539999 0.628086 1.539999 0.000000 1.000000 0.000000 37 132 232
1.539999 0.628086 -1.539999 0.832050 0.554700 0.000000 37 132 232
1.539999 0.628086 1.539999 0.832050 0.554700 0.000000 37 132 232
2.155999 -0.295913 1.539999 0.832050 0.554700 0.000000 75 233 255
2.155999 -0.295913 -1.539999 0.832050 0.554700 0.000000 75 233 255
-1.539999 0.628086 -1.539999 0.000000 0.554700 -0.832050 37 132 232
1.539999 0.628086 -1.539999 0.000000 0.554700 -0.832050 37 132 232
1.539999 -0.295913 -2.155999 0.000000 0.554700 -0.832050 75 233 255
-1.539999 -0.295913 -2.155999 0.000000 0.554700 -0.832050 75 233 255
1.539999 0.628086 1.539999 0.000000 0.554700 0.832050 37 132 232
-1.539999 0.628086 1.539999 0.000000 0.554700 0.832050 37 132 232
-1.539999 -0.295913 2.155999 0.000000 0.554700 0.832050 75 233 255
1.539999 -0.295913 2.155999 0.000000 0.554700 0.832050 75 233 255
-1.539999 0.628086 1.539999 -0.832050 0.554700 0.000000 37 132 232
-1.539999 0.628086 -1.539999 -0.832050 0.554700 0.000000 37 132 232
-2.155999 -0.295913 -1.539999 -0.832050 0.554700 0.000000 75 233 255
-2.155999 -0.295913 1.539999 -0.832050 0.554700 0.000000 75 233 255
-1.539999 -0.295913 2.155999 -0.707107 0.000000 0.707107 75 233 255
-1.539999 4.324085 2.155999 -0.707107 0.000000 0.707107 54 129 198
-2.155999 4.324085 1.539999 -0.707107 0.000000 0.707107 54 129 198
-2.155999 -0.295913 1.539999 -0.707107 0.000000 0.707107 75 233 255
-1.539999 0.628086 1.539999 1.000000 0.000000 0.000000 75 233 255
-1.539999 4.324085 1.539999 1.000000 0.000000 0.000000 54 129 198
-1.539999 4.324085 2.155999 1.000000 0.000000 0.000000 54 129 198
-1.539999 -0.295913 2.155999 1.000000 0.000000 0.000000 75 233 255
-2.155999 -0.295913 1.539999 -0.000000 0.000000 -1.000000 75 233 255
-2.155999 4.324085 1.539999 -0.000000 0.000000 -1.000000 54 129 198
-1.539999 4.324085 1.539999 -0.000000 0.000000 -1.000000 54 129 198
-1.539999 0.628086 1.539999 -0.000000 0.000000 -1.000000 75 233 255
-1.539999 4.324085 -1.539999 0.000000 -0.000000 1.000000 54 129 198
-2.155999 4.324085 -1.539999 0.000000 -0.000000 1.000000 54 129 198
-2.155999 -0.295913 -1.539999 0.000000 -0.000000 1.000000 77 232 251
-1.539999 0.628086 -1.539999 0.000000 -0.000000 1.000000 75 233 255
-1.539999 4.324085 -2.155999 -0.707107 0.000000 -0.707107 54 129 198
-1.539999 -0.295913 -2.155999 -0.707107 0.000000 -0.707107 75 233 255
-2.155999 -0.295913 -1.539999 -0.707107 0.000000 -0.707107 75 233 255
-2.155999 4.324085 -1.539999 -0.707107 0.000000 -0.707107 54 129 198
-1.539999 0.628086 -1.539999 1.000000 0.000000 0.000000 75 233 255
-1.539999 -0.295913 -2.155999 1.000000 0.000000 0.000000 75 233 255
-1.539999 4.324085 -2.155999 1.000000 0.000000 0.000000 54 129 198
-1.539999 4.324085 -1.539999 1.000000 0.000000 0.000000 54 129 198
1.539999 -0.295913 -2.155999 -1.000000 -0.000000 0.000000 75 233 255
1.539999 0.628086 -1.539999 -1.000000 -0.000000 0.000000 75 233 255
1.539999 4.324085 -1.539999 -1.000000 -0.000000 0.000000 54 129 198
1.539999 4.324085 -2.155999 -1.000000 -0.000000 0.000000 54 129 198
2.155999 4.324085 -1.539999 0.707107 0.000000 -0.707107 54 129 198
2.155999 -0.295913 -1.539999 0.707107 0.000000 -0.707107 75 233 255
1.539999 -0.295913 -2.155999 0.707107 0.000000 -0.707107 75 233 255
1.539999 4.324085 -2.155999 0.707107 0.000000 -0.707107 54 129 198
1.539999 0.628086 -1.539999 0.000000 0.000000 1.000000 75 233 255
2.155999 -0.295913 -1.539999 0.000000 0.000000 1.000000 75 233 255
2.155999 4.324085 -1.539999 0.000000 0.000000 1.000000 54 129 198
1.539999 4.324085 -1.539999 0.000000 0.000000 1.000000 54 129 198
1.539999 4.324085 1.539999 0.000000 0.000000 -1.000000 54 129 198
2.155999 4.324085 1.539999 0.000000 0.000000 -1.000000 54 129 198
2.155999 -0.295913 1.539999 0.000000 0.000000 -1.000000 75 233 255
1.539999 0.628086 1.539999 0.000000 0.000000 -1.000000 75 233 255
1.539999 4.324085 1.539999 -1.000000 0.000000 -0.000000 54 129 198
1.539999 0.628086 1.539999 -1.000000 0.000000 -0.000000 75 233 255
1.539999 -0.295913 2.155999 -1.000000 0.000000 -0.000000 75 233 255
1.539999 4.324085 2.155999 -1.000000 0.000000 -0.000000 54 129 198
2.155999 4.324085 1.539999 0.707107 0.000000 0.707107 54 129 198
1.539999 4.324085 2.155999 0.707107 0.000000 0.707107 54 129 198
1.539999 -0.295913 2.155999 0.707107 0.000000 0.707107 75 233 255
2.155999 -0.295913 1.539999 0.707107 0.000000 0.707107 75 233 255
1.539999 4.632085 -1.539999 0.000000 1.000000 0.000000 56 96 166
-1.539999 4.632085 -1.539999 0.000000 1.000000 0.000000 56 96 166
-1.539999 4.632085 1.539999 0.000000 1.000000 0.000000 56 96 166
1.539999 4.632085 1.539999 0.000000 1.000000 0.000000 56 96 166
1.539999 4.324085 -1.539999 0.000000 -1.000000 -0.000000 54 129 198
2.155999 4.324085 -1.539999 0.000000 -1.000000 -0.000000 54 129 198
2.155999 4.324085 1.539999 0.000000 -1.000000 -0.000000 54 129 198
1.539999 4.324085 1.539999 0.000000 -1.000000 -0.000000 54 129 198
1.539999 4.632085 1.539999 0.447214 0.894427 0.000000 56 96 166
2.155999 4.324085 1.539999 0.447214 0.894427 0.000000 54 129 198
2.155999 4.324085 -1.539999 0.447214 0.894427 0.000000 54 129 198
1.539999 4.632085 -1.539999 0.447214 0.894427 0.000000 56 96 166
2.155999 4.324085 1.539999 0.408249 0.816496 0.408249 54 129 198
1.539999 4.632085 1.539999 0.408249 0.816496 0.408249 56 96 166
1.539999 4.324085 2.155999 0.408249 0.816496 0.408249 54 129 198
-1.539999 4.324085 1.539999 0.000000 -1.000000 0.000000 54 129 198
-1.539999 4.324085 -1.539999 0.000000 -1.000000 0.000000 54 129 198
-1.539999 4.324085 -2.155999 -0.000000 -1.000000 0.000000 54 129 198
1.539999 4.324085 -2.155999 -0.000000 -1.000000 0.000000 54 129 198
-2.155999 4.324085 1.539999 0.000000 -1.000000 0.000000 54 129 198
-2.155999 4.324085 -1.539999 0.000000 -1.000000 0.000000 54 129 198
1.539999 4.324085 2.155999 0.000000 -1.000000 -0.000000 54 129 198
-1.539999 4.324085 2.155999 0.000000 -1.000000 -0.000000 54 129 198
1.539999 4.324085 2.155999 0.000000 0.894427 0.447214 54 129 198
1.539999 4.632085 1.539999 0.000000 0.894427 0.447214 56 96 166
-1.539999 4.632085 1.539999 0.000000 0.894427 0.447214 56 96 166
-1.539999 4.324085 2.155999 0.000000 0.894427 0.447214 54 129 198
-1.539999 4.632085 -1.539999 -0.447214 0.894427 0.000000 56 96 166
-2.155999 4.324085 -1.539999 -0.447214 0.894427 0.000000 54 129 198
-2.155999 4.324085 1.539999 -0.447214 0.894427 0.000000 54 129 198
-1.539999 4.632085 1.539999 -0.447214 0.894427 0.000000 56 96 166
1.539999 4.632085 -1.539999 0.000000 0.894427 -0.447214 56 96 166
1.539999 4.324085 -2.155999 0.000000 0.894427 -0.447214 54 129 198
-1.539999 4.324085 -2.155999 0.000000 0.894427 -0.447214 54 129 198
-1.539999 4.632085 -1.539999 0.000000 0.894427 -0.447214 56 96 166
2.155999 4.324085 -1.539999 0.408249 0.816496 -0.408249 54 129 198
1.539999 4.324085 -2.155999 0.408249 0.816496 -0.408249 54 129 198
1.539999 4.632085 -1.539999 0.408249 0.816496 -0.408249 56 96 166
-2.155999 4.324085 1.539999 -0.408249 0.816496 0.408249 54 129 198
-1.539999 4.324085 2.155999 -0.408249 0.816496 0.408249 54 129 198
-1.539999 4.632085 1.539999 -0.408249 0.816496 0.408249 56 96 166
-1.539999 4.324085 -2.155999 -0.408249 0.816496 -0.408249 54 129 198
-2.155999 4.324085 -1.539999 -0.408249 0.816496 -0.408249 54 129 198
-1.539999 4.632085 -1.539999 -0.408249 0.816496 -0.408249 56 96 166
4 0 1 2 3
4 4 5 6 7
4 8 9 10 11
4 12 13 14 15
4 16 17 18 19
4 20 21 22 23
4 24 25 26 27
4 28 29 30 31
4 32 33 34 35
4 36 37 38 39
4 40 41 42 43
4 44 45 46 47
4 48 49 50 51
4 52 53 54 55
4 56 57 58 59
4 60 61 62 63
4 64 65 66 67
4 68 69 70 71
4 72 73 74 75
4 76 77 78 79
3 80 81 82
4 72 75 83 84
4 84 85 86 72
4 83 87 88 84
4 83 75 89 90
4 91 92 93 94
4 95 96 97 98
4 99 100 101 102
3 103 104 105
3 106 107 108
3 109 110 111
