ply
format ascii 1.0
comment Created by Blender 2.73 (sub 0) - www.blender.org, source file: 'ChargeBase.blend'
element vertex 64
property float x
property float y
property float z
property float nx
property float ny
property float nz
property uchar red
property uchar green
property uchar blue
element face 17
property list uchar uint vertex_indices
end_header
1.086294 0.261522 -1.036775 0.000000 1.000000 0.000000 0 0 0
-1.119941 0.261522 -1.036775 0.000000 1.000000 0.000000 0 0 0
-1.119941 0.261522 1.169459 0.000000 1.000000 0.000000 0 0 0
1.086294 0.261522 1.169459 0.000000 1.000000 0.000000 0 0 0
-1.119941 0.261522 1.169459 0.565835 0.824518 0.000000 179 179 179
-1.119941 0.261522 -1.036775 0.565835 0.824518 0.000000 179 179 179
-1.561187 0.564333 -1.036775 0.565835 0.824518 0.000000 179 179 179
-1.561187 0.564333 1.169459 0.565835 0.824518 0.000000 179 179 179
1.086294 0.261522 1.169459 0.000000 0.824518 -0.565835 179 179 179
-1.119941 0.261522 1.169459 0.000000 0.824518 -0.565835 179 179 179
-1.119941 0.564333 1.610706 0.000000 0.824518 -0.565835 179 179 179
1.086294 0.564333 1.610706 0.000000 0.824518 -0.565835 179 179 179
1.086294 0.261522 -1.036775 -0.565835 0.824518 0.000000 179 179 179
1.086294 0.261522 1.169459 -0.565835 0.824518 0.000000 179 179 179
1.527541 0.564333 1.169459 -0.565835 0.824518 0.000000 179 179 179
1.527541 0.564333 -1.036775 -0.565835 0.824518 0.000000 179 179 179
-1.119941 0.261522 -1.036775 0.000000 0.824518 0.565835 179 179 179
1.086294 0.261522 -1.036775 0.000000 0.824518 0.565835 179 179 179
1.086294 0.564333 -1.478022 0.000000 0.824518 0.565835 179 179 179
-1.119941 0.564333 -1.478022 0.000000 0.824518 0.565835 179 179 179
-1.119941 0.261522 -1.036775 0.492465 0.717605 0.492465 179 179 179
-1.119941 0.564333 -1.478022 0.492465 0.717605 0.492465 179 179 179
-1.561187 0.564333 -1.036775 0.492465 0.717605 0.492465 179 179 179
1.086294 0.261522 -1.036775 -0.492465 0.717605 0.492465 179 179 179
1.527541 0.564333 -1.036775 -0.492465 0.717605 0.492465 179 179 179
1.086294 0.564333 -1.478022 -0.492465 0.717605 0.492465 179 179 179
-1.119941 0.261522 1.169459 0.492465 0.717605 -0.492465 179 179 179
-1.561187 0.564333 1.169459 0.492465 0.717605 -0.492465 179 179 179
-1.119941 0.564333 1.610706 0.492465 0.717605 -0.492465 179 179 179
1.086294 0.261522 1.169459 -0.492465 0.717605 -0.492465 179 179 179
1.086294 0.564333 1.610706 -0.492465 0.717605 -0.492465 179 179 179
1.527541 0.564333 1.169459 -0.492465 0.717605 -0.492465 179 179 179
1.086294 0.564333 1.610706 0.000000 0.737761 0.675062 179 179 179
-1.119941 0.564333 1.610706 0.000000 0.737761 0.675062 179 179 179
-1.119941 -0.646910 2.934447 0.000000 0.737761 0.675062 179 179 179
1.086294 -0.646910 2.934447 0.000000 0.737761 0.675062 179 179 179
-1.561187 0.564333 1.169459 -0.675062 0.737761 0.000000 179 179 179
-1.561187 0.564333 -1.036775 -0.675062 0.737761 0.000000 179 179 179
-2.884928 -0.646910 -1.036775 -0.675062 0.737761 0.000000 179 179 179
-2.884928 -0.646910 1.169459 -0.675062 0.737761 0.000000 179 179 179
-1.119941 0.564333 -1.478022 0.000000 0.737761 -0.675062 179 179 179
1.086294 0.564333 -1.478022 0.000000 0.737761 -0.675062 179 179 179
1.086294 -0.646910 -2.801762 0.000000 0.737761 -0.675062 179 179 179
-1.119941 -0.646910 -2.801762 0.000000 0.737761 -0.675062 179 179 179
1.527541 0.564333 -1.036775 0.675062 0.737761 0.000000 179 179 179
1.527541 0.564333 1.169459 0.675062 0.737761 0.000000 179 179 179
2.851281 -0.646910 1.169459 0.675062 0.737761 0.000000 179 179 179
2.851281 -0.646910 -1.036775 0.675062 0.737761 0.000000 179 179 179
1.527541 0.564333 -1.036775 0.559508 0.611474 -0.559508 179 179 179
2.851281 -0.646910 -1.036775 0.559508 0.611474 -0.559508 179 179 179
1.086294 -0.646910 -2.801762 0.559508 0.611474 -0.559508 179 179 179
1.086294 0.564333 -1.478022 0.559508 0.611474 -0.559508 179 179 179
-1.119941 0.564333 -1.478022 -0.559508 0.611474 -0.559508 179 179 179
-1.119941 -0.646910 -2.801762 -0.559508 0.611474 -0.559508 179 179 179
-2.884928 -0.646910 -1.036775 -0.559508 0.611474 -0.559508 179 179 179
-1.561187 0.564333 -1.036775 -0.559508 0.611474 -0.559508 179 179 179
-1.561187 0.564333 1.169459 -0.559508 0.611474 0.559508 179 179 179
-2.884928 -0.646910 1.169459 -0.559508 0.611474 0.559508 179 179 179
-1.119941 -0.646910 2.934447 -0.559508 0.611474 0.559508 179 179 179
-1.119941 0.564333 1.610706 -0.559508 0.611474 0.559508 179 179 179
1.527541 0.564333 1.169459 0.559508 0.611474 0.559508 179 179 179
1.086294 0.564333 1.610706 0.559508 0.611474 0.559508 179 179 179
1.086294 -0.646910 2.934447 0.559508 0.611474 0.559508 179 179 179
2.851281 -0.646910 1.169459 0.559508 0.611474 0.559508 179 179 179
4 0 1 2 3
4 4 5 6 7
4 8 9 10 11
4 12 13 14 15
4 16 17 18 19
3 20 21 22
3 23 24 25
3 26 27 28
3 29 30 31
4 32 33 34 35
4 36 37 38 39
4 40 41 42 43
4 44 45 46 47
4 48 49 50 51
4 52 53 54 55
4 56 57 58 59
4 60 61 62 63
