ply
format ascii 1.0
comment Created by Blender 2.73 (sub 0) - www.blender.org, source file: 'paddle.blend'
element vertex 166
property float x
property float y
property float z
property float nx
property float ny
property float nz
property uchar red
property uchar green
property uchar blue
element face 48
property list uchar uint vertex_indices
end_header
3.252468 -3.119367 -7.141601 0.812591 -0.295759 -0.502217 107 107 107
4.496625 0.298929 -7.141601 0.812591 -0.295759 -0.502217 107 107 107
4.646850 0.244252 -6.866337 0.812591 -0.295759 -0.502217 107 107 107
3.402692 -3.174044 -6.866337 0.812591 -0.295759 -0.502217 107 107 107
3.402692 -3.174044 -6.866337 0.939656 -0.342007 0.008775 107 107 107
4.646850 0.244252 -6.866337 0.939656 -0.342007 0.008775 107 107 107
4.642404 0.245869 -6.327204 0.939656 -0.342007 0.008775 107 107 107
3.398247 -3.172426 -6.327204 0.939656 -0.342007 0.008775 107 107 107
3.398247 -3.172426 -6.327204 0.918468 -0.334295 0.211335 107 107 107
4.642404 0.245869 -6.327204 0.918468 -0.334295 0.211335 107 107 107
4.483460 0.303721 -5.544920 0.918468 -0.334295 0.211335 107 107 107
3.239303 -3.114575 -5.544920 0.918468 -0.334295 0.211335 107 107 107
3.239303 -3.114575 -5.544920 0.892736 -0.324929 0.312161 107 107 107
4.483460 0.303721 -5.544920 0.892736 -0.324929 0.312161 107 107 107
4.176125 0.415581 -4.549548 0.892736 -0.324929 0.312161 107 107 107
2.931967 -3.002714 -4.549548 0.892736 -0.324929 0.312161 107 107 107
2.931967 -3.002714 -4.549548 0.871369 -0.317152 0.374341 107 107 107
4.176125 0.415581 -4.549548 0.871369 -0.317152 0.374341 107 107 107
3.732210 0.577153 -3.379340 0.871369 -0.317152 0.374341 107 107 107
2.488052 -2.841142 -3.379340 0.871369 -0.317152 0.374341 107 107 107
2.488052 -2.841142 -3.379340 0.853312 -0.310580 0.418806 107 107 107
3.732210 0.577153 -3.379340 0.853312 -0.310580 0.418806 107 107 107
3.168774 0.782227 -2.079265 0.853312 -0.310580 0.418806 107 107 107
1.924616 -2.636069 -2.079266 0.853312 -0.310580 0.418806 107 107 107
1.924616 -2.636069 -2.079266 0.837122 -0.304688 0.454303 107 107 107
3.168774 0.782227 -2.079265 0.837122 -0.304688 0.454303 107 107 107
2.507470 1.022922 -0.699286 0.837122 -0.304688 0.454303 107 107 107
1.263312 -2.395374 -0.699286 0.837122 -0.304688 0.454303 107 107 107
1.263312 -2.395374 -0.699286 0.821621 -0.299046 0.485294 107 107 107
2.507470 1.022922 -0.699286 0.821621 -0.299046 0.485294 107 107 107
1.773711 1.289988 0.707567 0.821621 -0.299046 0.485294 107 107 107
0.529554 -2.128308 0.707567 0.821621 -0.299046 0.485294 107 107 107
0.529554 -2.128308 0.707567 0.805741 -0.293266 0.514564 107 107 107
1.773711 1.289988 0.707567 0.805741 -0.293266 0.514564 107 107 107
0.995697 1.573162 2.087228 0.805741 -0.293266 0.514564 107 107 107
-0.248461 -1.845134 2.087228 0.805741 -0.293266 0.514564 107 107 107
-0.248461 -1.845134 2.087228 0.788272 -0.286907 0.544345 107 107 107
0.995697 1.573162 2.087228 0.788272 -0.286907 0.544345 107 107 107
0.203324 1.861562 3.386678 0.788272 -0.286907 0.544345 107 107 107
-1.040834 -1.556734 3.386678 0.788272 -0.286907 0.544345 107 107 107
-1.040834 -1.556734 3.386678 0.767479 -0.279340 0.577014 107 107 107
0.203324 1.861562 3.386678 0.767479 -0.279340 0.577014 107 107 107
-0.572957 2.144105 4.555982 0.767479 -0.279340 0.577014 107 107 107
-1.817115 -1.274191 4.555981 0.767479 -0.279340 0.577014 107 107 107
-1.817115 -1.274191 4.555981 0.740322 -0.269455 0.615888 107 107 107
-0.572957 2.144105 4.555982 0.740322 -0.269455 0.615888 107 107 107
-1.303314 2.409933 5.550200 0.740322 -0.269455 0.615888 107 107 107
-2.547472 -1.008363 5.550200 0.740322 -0.269455 0.615888 107 107 107
-2.547472 -1.008363 5.550200 0.700403 -0.254926 0.666670 107 107 107
-1.303314 2.409933 5.550200 0.700403 -0.254926 0.666670 107 107 107
-1.959678 2.648830 6.331128 0.700403 -0.254926 0.666670 107 107 107
-3.203836 -0.769466 6.331128 0.700403 -0.254926 0.666670 107 107 107
-3.203836 -0.769466 6.331128 0.631218 -0.229745 0.740797 107 107 107
-1.959678 2.648830 6.331128 0.631218 -0.229745 0.740797 107 107 107
-2.516828 2.851616 6.868753 0.631218 -0.229745 0.740797 107 107 107
-3.760985 -0.566680 6.868753 0.631218 -0.229745 0.740797 107 107 107
-3.760985 -0.566680 6.868753 0.476967 -0.173602 0.861606 107 107 107
-2.516828 2.851616 6.868753 0.476967 -0.173602 0.861606 107 107 107
-2.953350 3.010497 7.142416 0.476967 -0.173602 0.861606 107 107 107
-4.197508 -0.407799 7.142416 0.476967 -0.173602 0.861606 107 107 107
-4.197508 -0.407799 7.142416 -0.002408 0.000876 0.999997 107 107 107
-2.953350 3.010497 7.142416 -0.002408 0.000876 0.999997 107 107 107
-3.252471 3.119368 7.141601 -0.002408 0.000876 0.999997 107 107 107
-4.496629 -0.298928 7.141600 -0.002408 0.000876 0.999997 107 107 107
-4.496629 -0.298928 7.141600 -0.812592 0.295759 0.502216 107 107 107
-3.252471 3.119368 7.141601 -0.812592 0.295759 0.502216 107 107 107
-3.402695 3.174045 6.866336 -0.812592 0.295759 0.502216 107 107 107
-4.646853 -0.244251 6.866335 -0.812592 0.295759 0.502216 107 107 107
-4.646853 -0.244251 6.866335 -0.939656 0.342007 -0.008775 107 107 107
-3.402695 3.174045 6.866336 -0.939656 0.342007 -0.008775 107 107 107
-3.398249 3.172427 6.327202 -0.939656 0.342007 -0.008775 107 107 107
-4.642407 -0.245869 6.327202 -0.939656 0.342007 -0.008775 107 107 107
-4.642407 -0.245869 6.327202 -0.918468 0.334295 -0.211336 107 107 107
-3.398249 3.172427 6.327202 -0.918468 0.334295 -0.211336 107 107 107
-3.239305 3.114575 5.544917 -0.918468 0.334295 -0.211336 107 107 107
-4.483462 -0.303720 5.544917 -0.918468 0.334295 -0.211336 107 107 107
-4.483462 -0.303720 5.544917 -0.892735 0.324929 -0.312161 107 107 107
-3.239305 3.114575 5.544917 -0.892735 0.324929 -0.312161 108 108 108
-2.931969 3.002715 4.549545 -0.892735 0.324929 -0.312161 107 107 107
-4.176126 -0.415581 4.549544 -0.892735 0.324929 -0.312161 107 107 107
-4.176126 -0.415581 4.549544 -0.871369 0.317152 -0.374341 107 107 107
-2.931969 3.002715 4.549545 -0.871369 0.317152 -0.374341 107 107 107
-2.488053 2.841143 3.379334 -0.871369 0.317152 -0.374341 107 107 107
-3.732211 -0.577153 3.379334 -0.871369 0.317152 -0.374341 107 107 107
-3.732211 -0.577153 3.379334 -0.853312 0.310580 -0.418806 107 107 107
-2.488053 2.841143 3.379334 -0.853312 0.310580 -0.418806 107 107 107
-1.924616 2.636069 2.079259 -0.853312 0.310580 -0.418806 107 107 107
-3.168773 -0.782227 2.079258 -0.853312 0.310580 -0.418806 107 107 107
-3.168773 -0.782227 2.079258 -0.837122 0.304688 -0.454303 107 107 107
-1.924616 2.636069 2.079259 -0.837122 0.304688 -0.454303 107 107 107
-1.263312 2.395373 0.699278 -0.837122 0.304688 -0.454303 107 107 107
-2.507469 -1.022922 0.699278 -0.837122 0.304688 -0.454303 107 107 107
-2.507469 -1.022922 0.699278 -0.821621 0.299046 -0.485294 107 107 107
-1.263312 2.395373 0.699278 -0.821621 0.299046 -0.485294 107 107 107
-0.529552 2.128307 -0.707575 -0.821621 0.299046 -0.485294 107 107 107
-1.773710 -1.289989 -0.707575 -0.821621 0.299046 -0.485294 107 107 107
-1.773710 -1.289989 -0.707575 -0.805741 0.293266 -0.514564 107 107 107
-0.529552 2.128307 -0.707575 -0.805741 0.293266 -0.514564 107 107 107
0.248463 1.845133 -2.087237 -0.805741 0.293266 -0.514564 107 107 107
-0.995694 -1.573163 -2.087238 -0.805741 0.293266 -0.514564 107 107 107
-0.995694 -1.573163 -2.087238 -0.788271 0.286907 -0.544346 107 107 107
0.248463 1.845133 -2.087237 -0.788271 0.286907 -0.544346 107 107 107
1.040837 1.556732 -3.386687 -0.788271 0.286907 -0.544346 107 107 107
-0.203321 -1.861563 -3.386687 -0.788271 0.286907 -0.544346 107 107 107
-0.203321 -1.861563 -3.386687 -0.767479 0.279339 -0.577015 107 107 107
1.040837 1.556732 -3.386687 -0.767479 0.279339 -0.577015 107 107 107
1.817117 1.274189 -4.555989 -0.767479 0.279339 -0.577015 107 107 107
0.572960 -2.144106 -4.555989 -0.767479 0.279339 -0.577015 107 107 107
0.572960 -2.144106 -4.555989 -0.740321 0.269455 -0.615888 107 107 107
1.817117 1.274189 -4.555989 -0.740321 0.269455 -0.615888 107 107 107
2.547473 1.008362 -5.550206 -0.740321 0.269455 -0.615888 107 107 107
1.303316 -2.409934 -5.550206 -0.740321 0.269455 -0.615888 107 107 107
1.303316 -2.409934 -5.550206 -0.700403 0.254926 -0.666670 107 107 107
2.547473 1.008362 -5.550206 -0.700403 0.254926 -0.666670 107 107 107
3.203838 0.769465 -6.331132 -0.700403 0.254926 -0.666670 107 107 107
1.959680 -2.648830 -6.331132 -0.700403 0.254926 -0.666670 107 107 107
1.959680 -2.648830 -6.331132 -0.631218 0.229744 -0.740798 107 107 107
3.203838 0.769465 -6.331132 -0.631218 0.229744 -0.740798 107 107 107
3.760986 0.566679 -6.868756 -0.631218 0.229744 -0.740798 107 107 107
2.516828 -2.851616 -6.868756 -0.631218 0.229744 -0.740798 107 107 107
-3.252471 3.119368 7.141601 0.342020 0.939693 0.000000 107 107 107
-2.953350 3.010497 7.142416 0.342020 0.939693 0.000000 107 107 107
-3.402695 3.174045 6.866336 0.342020 0.939693 0.000000 107 107 107
4.496625 0.298929 -7.141601 0.002410 -0.000877 -0.999997 107 107 107
3.252468 -3.119367 -7.141601 0.002410 -0.000877 -0.999997 107 107 107
2.953350 -3.010497 -7.142417 0.002410 -0.000877 -0.999997 107 107 107
4.197508 0.407799 -7.142417 0.002410 -0.000877 -0.999997 107 107 107
2.516828 -2.851616 -6.868756 -0.476966 0.173601 -0.861607 107 107 107
3.760986 0.566679 -6.868756 -0.476966 0.173601 -0.861607 107 107 107
4.197508 0.407799 -7.142417 -0.476966 0.173601 -0.861607 107 107 107
2.953350 -3.010497 -7.142417 -0.476966 0.173601 -0.861607 107 107 107
-2.953350 3.010497 7.142416 0.342020 0.939693 0.000001 107 107 107
-2.516828 2.851616 6.868753 0.342020 0.939693 0.000001 107 107 107
-3.398249 3.172427 6.327202 0.342020 0.939693 0.000001 107 107 107
-3.402695 3.174045 6.866336 0.342020 0.939693 0.000001 107 107 107
-2.516828 2.851616 6.868753 0.342020 0.939693 -0.000000 107 107 107
-1.959678 2.648830 6.331128 0.342020 0.939693 -0.000000 107 107 107
-3.239305 3.114575 5.544917 0.342020 0.939693 -0.000000 107 107 107
-3.398249 3.172427 6.327202 0.342020 0.939693 -0.000000 107 107 107
-1.303314 2.409933 5.550200 0.342020 0.939693 -0.000000 107 107 107
-2.931969 3.002715 4.549545 0.342020 0.939693 -0.000000 107 107 107
-0.572957 2.144105 4.555982 0.342020 0.939693 0.000000 107 107 107
-2.488053 2.841143 3.379334 0.342020 0.939693 0.000000 107 107 107
0.203324 1.861562 3.386678 0.342020 0.939693 0.000000 107 107 107
-1.924616 2.636069 2.079259 0.342020 0.939693 0.000000 107 107 107
0.995697 1.573162 2.087228 0.342020 0.939693 -0.000000 107 107 107
-1.263312 2.395373 0.699278 0.342020 0.939693 -0.000000 107 107 107
1.773711 1.289988 0.707567 0.342020 0.939693 0.000000 107 107 107
-0.529552 2.128307 -0.707575 0.342020 0.939693 0.000000 107 107 107
2.507470 1.022922 -0.699286 0.342020 0.939693 -0.000000 107 107 107
0.248463 1.845133 -2.087237 0.342020 0.939693 -0.000000 107 107 107
3.168774 0.782227 -2.079265 0.342020 0.939693 0.000000 107 107 107
1.040837 1.556732 -3.386687 0.342020 0.939693 0.000000 107 107 107
3.732210 0.577153 -3.379340 0.342020 0.939693 0.000000 107 107 107
1.817117 1.274189 -4.555989 0.342020 0.939693 0.000000 107 107 107
4.176125 0.415581 -4.549548 0.342020 0.939693 0.000000 107 107 107
2.547473 1.008362 -5.550206 0.342020 0.939693 0.000000 107 107 107
4.496625 0.298929 -7.141601 0.342021 0.939692 -0.000001 107 107 107
4.197508 0.407799 -7.142417 0.342021 0.939692 -0.000001 107 107 107
4.646850 0.244252 -6.866337 0.342021 0.939692 -0.000001 107 107 107
4.642404 0.245869 -6.327204 0.342020 0.939693 0.000000 107 107 107
4.646850 0.244252 -6.866337 0.342020 0.939693 0.000000 107 107 107
4.197508 0.407799 -7.142417 0.342020 0.939693 0.000000 107 107 107
3.760986 0.566679 -6.868756 0.342020 0.939693 0.000000 107 107 107
4.483460 0.303721 -5.544920 0.342020 0.939693 -0.000000 107 107 107
3.203838 0.769465 -6.331132 0.342020 0.939693 -0.000000 107 107 107
4 0 1 2 3
4 4 5 6 7
4 8 9 10 11
4 12 13 14 15
4 16 17 18 19
4 20 21 22 23
4 24 25 26 27
4 28 29 30 31
4 32 33 34 35
4 36 37 38 39
4 40 41 42 43
4 44 45 46 47
4 48 49 50 51
4 52 53 54 55
4 56 57 58 59
4 60 61 62 63
4 64 65 66 67
4 68 69 70 71
4 72 73 74 75
4 76 77 78 79
4 80 81 82 83
4 84 85 86 87
4 88 89 90 91
4 92 93 94 95
4 96 97 98 99
4 100 101 102 103
4 104 105 106 107
4 108 109 110 111
4 112 113 114 115
4 116 117 118 119
3 120 121 122
4 123 124 125 126
4 127 128 129 130
4 131 132 133 134
4 135 136 137 138
4 136 139 140 137
4 139 141 142 140
4 141 143 144 142
4 143 145 146 144
4 145 147 148 146
4 147 149 150 148
4 149 151 152 150
4 151 153 154 152
4 153 155 156 154
3 157 158 159
4 160 161 162 163
4 164 160 163 165
4 155 164 165 156
