ply
format ascii 1.0
comment Created by Blender 2.73 (sub 0) - www.blender.org, source file: 'Rpaddle.blend'
element vertex 164
property float x
property float y
property float z
property float nx
property float ny
property float nz
property uchar red
property uchar green
property uchar blue
element face 48
property list uchar uint vertex_indices
end_header
-4.496627 -0.298928 -7.141600 -0.002409 0.000877 -0.999997 107 107 107
-3.252470 3.119368 -7.141600 -0.002409 0.000877 -0.999997 107 107 107
-2.953348 3.010497 -7.142416 -0.002409 0.000877 -0.999997 107 107 107
-4.197506 -0.407799 -7.142416 -0.002409 0.000877 -0.999997 107 107 107
-4.197506 -0.407799 -7.142416 0.476969 -0.173603 -0.861605 107 107 107
-2.953348 3.010497 -7.142416 0.476969 -0.173603 -0.861605 107 107 107
-2.516826 2.851615 -6.868752 0.476969 -0.173603 -0.861605 107 107 107
-3.760983 -0.566680 -6.868752 0.476969 -0.173603 -0.861605 107 107 107
-3.760983 -0.566680 -6.868752 0.631218 -0.229745 -0.740798 107 107 107
-2.516826 2.851615 -6.868752 0.631218 -0.229745 -0.740798 107 107 107
-1.959677 2.648830 -6.331127 0.631218 -0.229745 -0.740798 107 107 107
-3.203835 -0.769466 -6.331127 0.631218 -0.229745 -0.740798 107 107 107
-3.203835 -0.769466 -6.331127 0.700403 -0.254926 -0.666669 107 107 107
-1.959677 2.648830 -6.331127 0.700403 -0.254926 -0.666669 107 107 107
-1.303312 2.409933 -5.550200 0.700403 -0.254926 -0.666669 107 107 107
-2.547470 -1.008363 -5.550199 0.700403 -0.254926 -0.666669 107 107 107
-2.547470 -1.008363 -5.550199 0.740322 -0.269455 -0.615888 107 107 107
-1.303312 2.409933 -5.550200 0.740322 -0.269455 -0.615888 107 107 107
-0.572957 2.144105 -4.555982 0.740322 -0.269455 -0.615888 107 107 107
-1.817115 -1.274190 -4.555981 0.740322 -0.269455 -0.615888 107 107 107
-1.817115 -1.274190 -4.555981 0.767479 -0.279340 -0.577014 107 107 107
-0.572957 2.144105 -4.555982 0.767479 -0.279340 -0.577014 107 107 107
0.203323 1.861562 -3.386679 0.767479 -0.279340 -0.577014 107 107 107
-1.040834 -1.556733 -3.386679 0.767479 -0.279340 -0.577014 107 107 107
-1.040834 -1.556733 -3.386679 0.788272 -0.286907 -0.544345 107 107 107
0.203323 1.861562 -3.386679 0.788272 -0.286907 -0.544345 107 107 107
0.995696 1.573162 -2.087229 0.788272 -0.286907 -0.544345 107 107 107
-0.248461 -1.845133 -2.087229 0.788272 -0.286907 -0.544345 107 107 107
-0.248461 -1.845133 -2.087229 0.805741 -0.293266 -0.514564 107 107 107
0.995696 1.573162 -2.087229 0.805741 -0.293266 -0.514564 107 107 107
1.773711 1.289988 -0.707568 0.805741 -0.293266 -0.514564 107 107 107
0.529553 -2.128307 -0.707568 0.805741 -0.293266 -0.514564 107 107 107
0.529553 -2.128307 -0.707568 0.821621 -0.299046 -0.485294 107 107 107
1.773711 1.289988 -0.707568 0.821621 -0.299046 -0.485294 107 107 107
2.507469 1.022922 0.699285 0.821621 -0.299046 -0.485294 107 107 107
1.263312 -2.395374 0.699285 0.821621 -0.299046 -0.485294 107 107 107
1.263312 -2.395374 0.699285 0.837122 -0.304688 -0.454303 107 107 107
2.507469 1.022922 0.699285 0.837122 -0.304688 -0.454303 107 107 107
3.168773 0.782227 2.079264 0.837122 -0.304688 -0.454303 107 107 107
1.924615 -2.636069 2.079264 0.837122 -0.304688 -0.454303 107 107 107
1.924615 -2.636069 2.079264 0.853312 -0.310580 -0.418806 107 107 107
3.168773 0.782227 2.079264 0.853312 -0.310580 -0.418806 107 107 107
3.732210 0.577153 3.379340 0.853312 -0.310580 -0.418806 107 107 107
2.488052 -2.841143 3.379340 0.853312 -0.310580 -0.418806 107 107 107
2.488052 -2.841143 3.379340 0.871369 -0.317152 -0.374341 107 107 107
3.732210 0.577153 3.379340 0.871369 -0.317152 -0.374341 107 107 107
4.176125 0.415581 4.549549 0.871369 -0.317152 -0.374341 107 107 107
2.931967 -3.002715 4.549549 0.871369 -0.317152 -0.374341 107 107 107
2.931967 -3.002715 4.549549 0.892736 -0.324929 -0.312160 107 107 107
4.176125 0.415581 4.549549 0.892736 -0.324929 -0.312160 107 107 107
4.483460 0.303720 5.544922 0.892736 -0.324929 -0.312160 107 107 107
3.239302 -3.114575 5.544921 0.892736 -0.324929 -0.312160 107 107 107
3.239302 -3.114575 5.544921 0.918468 -0.334295 -0.211336 107 107 107
4.483460 0.303720 5.544922 0.918468 -0.334295 -0.211336 107 107 107
4.642405 0.245869 6.327206 0.918468 -0.334295 -0.211336 107 107 107
3.398247 -3.172427 6.327206 0.918468 -0.334295 -0.211336 107 107 107
3.398247 -3.172427 6.327206 0.939656 -0.342007 -0.008773 107 107 107
4.642405 0.245869 6.327206 0.939656 -0.342007 -0.008773 107 107 107
4.646850 0.244251 6.866339 0.939656 -0.342007 -0.008773 107 107 107
3.402692 -3.174044 6.866339 0.939656 -0.342007 -0.008773 107 107 107
3.402692 -3.174044 6.866339 0.812591 -0.295759 0.502218 107 107 107
4.646850 0.244251 6.866339 0.812591 -0.295759 0.502218 107 107 107
4.496625 0.298928 7.141602 0.812591 -0.295759 0.502218 107 107 107
3.252467 -3.119367 7.141602 0.812591 -0.295759 0.502218 107 107 107
3.252467 -3.119367 7.141602 0.002408 -0.000876 0.999997 107 107 107
4.496625 0.298928 7.141602 0.002408 -0.000876 0.999997 107 107 107
4.197504 0.407799 7.142418 0.002408 -0.000876 0.999997 107 107 107
2.953346 -3.010496 7.142417 0.002408 -0.000876 0.999997 107 107 107
2.953346 -3.010496 7.142417 -0.476970 0.173603 0.861604 107 107 107
4.197504 0.407799 7.142418 -0.476970 0.173603 0.861604 107 107 107
3.760980 0.566681 6.868752 -0.476970 0.173603 0.861604 107 107 107
2.516823 -2.851614 6.868753 -0.476970 0.173603 0.861604 107 107 107
2.516823 -2.851614 6.868753 -0.631218 0.229745 0.740798 107 107 107
3.760980 0.566681 6.868752 -0.631218 0.229745 0.740798 107 107 107
3.203831 0.769467 6.331127 -0.631218 0.229745 0.740798 107 107 107
1.959673 -2.648829 6.331127 -0.631218 0.229745 0.740798 107 107 107
1.959673 -2.648829 6.331127 -0.700403 0.254926 0.666669 107 107 107
3.203831 0.769467 6.331127 -0.700403 0.254926 0.666669 108 108 108
2.547467 1.008364 5.550199 -0.700403 0.254926 0.666669 107 107 107
1.303308 -2.409931 5.550199 -0.700403 0.254926 0.666669 107 107 107
1.303308 -2.409931 5.550199 -0.740322 0.269455 0.615888 107 107 107
2.547467 1.008364 5.550199 -0.740322 0.269455 0.615888 107 107 107
1.817109 1.274192 4.555979 -0.740322 0.269455 0.615888 107 107 107
0.572952 -2.144104 4.555979 -0.740322 0.269455 0.615888 107 107 107
0.572952 -2.144104 4.555979 -0.767479 0.279339 0.577014 107 107 107
1.817109 1.274192 4.555979 -0.767479 0.279339 0.577014 107 107 107
1.040829 1.556735 3.386676 -0.767479 0.279339 0.577014 107 107 107
-0.203329 -1.861560 3.386676 -0.767479 0.279339 0.577014 107 107 107
-0.203329 -1.861560 3.386676 -0.788272 0.286907 0.544345 107 107 107
1.040829 1.556735 3.386676 -0.788272 0.286907 0.544345 107 107 107
0.248456 1.845135 2.087224 -0.788272 0.286907 0.544345 107 107 107
-0.995702 -1.573160 2.087225 -0.788272 0.286907 0.544345 107 107 107
-0.995702 -1.573160 2.087225 -0.805741 0.293266 0.514564 107 107 107
0.248456 1.845135 2.087224 -0.805741 0.293266 0.514564 107 107 107
-0.529559 2.128309 0.707562 -0.805741 0.293266 0.514564 107 107 107
-1.773717 -1.289986 0.707562 -0.805741 0.293266 0.514564 107 107 107
-1.773717 -1.289986 0.707562 -0.821621 0.299046 0.485293 107 107 107
-0.529559 2.128309 0.707562 -0.821621 0.299046 0.485293 107 107 107
-1.263318 2.395376 -0.699292 -0.821621 0.299046 0.485293 107 107 107
-2.507476 -1.022920 -0.699292 -0.821621 0.299046 0.485293 107 107 107
-2.507476 -1.022920 -0.699292 -0.837123 0.304688 0.454303 107 107 107
-1.263318 2.395376 -0.699292 -0.837123 0.304688 0.454303 107 107 107
-1.924621 2.636070 -2.079272 -0.837123 0.304688 0.454303 107 107 107
-3.168779 -0.782225 -2.079271 -0.837123 0.304688 0.454303 107 107 107
-3.168779 -0.782225 -2.079271 -0.853312 0.310580 0.418806 107 107 107
-1.924621 2.636070 -2.079272 -0.853312 0.310580 0.418806 107 107 107
-2.488057 2.841144 -3.379347 -0.853312 0.310580 0.418806 107 107 107
-3.732215 -0.577151 -3.379347 -0.853312 0.310580 0.418806 107 107 107
-3.732215 -0.577151 -3.379347 -0.871369 0.317152 0.374340 107 107 107
-2.488057 2.841144 -3.379347 -0.871369 0.317152 0.374340 107 107 107
-2.931971 3.002716 -4.549554 -0.871369 0.317152 0.374340 107 107 107
-4.176129 -0.415580 -4.549554 -0.871369 0.317152 0.374340 107 107 107
-4.176129 -0.415580 -4.549554 -0.892736 0.324929 0.312160 107 107 107
-2.931971 3.002716 -4.549554 -0.892736 0.324929 0.312160 107 107 107
-3.239305 3.114576 -5.544926 -0.892736 0.324929 0.312160 107 107 107
-4.483463 -0.303719 -5.544926 -0.892736 0.324929 0.312160 107 107 107
-4.483463 -0.303719 -5.544926 -0.918468 0.334295 0.211335 107 107 107
-3.239305 3.114576 -5.544926 -0.918468 0.334295 0.211335 107 107 107
-3.398248 3.172427 -6.327208 -0.918468 0.334295 0.211335 107 107 107
-4.642406 -0.245868 -6.327208 -0.918468 0.334295 0.211335 107 107 107
4.496625 0.298928 7.141602 0.342021 0.939692 0.000002 107 107 107
4.646850 0.244251 6.866339 0.342021 0.939692 0.000002 107 107 107
4.197504 0.407799 7.142418 0.342021 0.939692 0.000002 107 107 107
-3.252470 3.119368 -7.141600 -0.812590 0.295759 -0.502219 107 107 107
-4.496627 -0.298928 -7.141600 -0.812590 0.295759 -0.502219 107 107 107
-4.646851 -0.244251 -6.866340 -0.812590 0.295759 -0.502219 107 107 107
-3.402693 3.174045 -6.866339 -0.812590 0.295759 -0.502219 107 107 107
-4.642406 -0.245868 -6.327208 -0.939656 0.342007 0.008772 107 107 107
-3.398248 3.172427 -6.327208 -0.939656 0.342007 0.008772 107 107 107
-3.402693 3.174045 -6.866339 -0.939656 0.342007 0.008772 107 107 107
-4.646851 -0.244251 -6.866340 -0.939656 0.342007 0.008772 107 107 107
4.646850 0.244251 6.866339 0.342020 0.939693 0.000000 107 107 107
4.642405 0.245869 6.327206 0.342020 0.939693 0.000000 107 107 107
3.760980 0.566681 6.868752 0.342020 0.939693 0.000000 107 107 107
4.197504 0.407799 7.142418 0.342020 0.939693 0.000000 107 107 107
4.483460 0.303720 5.544922 0.342020 0.939693 -0.000000 107 107 107
3.203831 0.769467 6.331127 0.342020 0.939693 -0.000000 107 107 107
4.176125 0.415581 4.549549 0.342020 0.939693 0.000000 107 107 107
2.547467 1.008364 5.550199 0.342020 0.939693 0.000000 107 107 107
3.732210 0.577153 3.379340 0.342020 0.939693 -0.000000 107 107 107
1.817109 1.274192 4.555979 0.342020 0.939693 -0.000000 107 107 107
3.168773 0.782227 2.079264 0.342020 0.939693 -0.000000 107 107 107
1.040829 1.556735 3.386676 0.342020 0.939693 -0.000000 107 107 107
2.507469 1.022922 0.699285 0.342020 0.939693 -0.000000 107 107 107
0.248456 1.845135 2.087224 0.342020 0.939693 -0.000000 107 107 107
1.773711 1.289988 -0.707568 0.342020 0.939693 0.000000 107 107 107
-0.529559 2.128309 0.707562 0.342020 0.939693 0.000000 107 107 107
0.995696 1.573162 -2.087229 0.342020 0.939693 0.000000 107 107 107
-1.263318 2.395376 -0.699292 0.342020 0.939693 0.000000 107 107 107
0.203323 1.861562 -3.386679 0.342020 0.939693 0.000000 107 107 107
-1.924621 2.636070 -2.079272 0.342020 0.939693 0.000000 107 107 107
-0.572957 2.144105 -4.555982 0.342020 0.939693 0.000000 107 107 107
-2.488057 2.841144 -3.379347 0.342020 0.939693 0.000000 107 107 107
-1.303312 2.409933 -5.550200 0.342020 0.939693 0.000000 107 107 107
-2.931971 3.002716 -4.549554 0.342020 0.939693 0.000000 107 107 107
-3.252470 3.119368 -7.141600 0.342019 0.939693 -0.000001 107 107 107
-3.402693 3.174045 -6.866339 0.342019 0.939693 -0.000001 107 107 107
-2.953348 3.010497 -7.142416 0.342019 0.939693 -0.000001 107 107 107
-2.516826 2.851615 -6.868752 0.342020 0.939693 0.000000 107 107 107
-2.953348 3.010497 -7.142416 0.342020 0.939693 0.000000 107 107 107
-3.402693 3.174045 -6.866339 0.342020 0.939693 0.000000 107 107 107
-3.398248 3.172427 -6.327208 0.342020 0.939693 0.000000 107 107 107
-1.959677 2.648830 -6.331127 0.342020 0.939693 -0.000000 107 107 107
-3.239305 3.114576 -5.544926 0.342020 0.939693 -0.000000 107 107 107
4 0 1 2 3
4 4 5 6 7
4 8 9 10 11
4 12 13 14 15
4 16 17 18 19
4 20 21 22 23
4 24 25 26 27
4 28 29 30 31
4 32 33 34 35
4 36 37 38 39
4 40 41 42 43
4 44 45 46 47
4 48 49 50 51
4 52 53 54 55
4 56 57 58 59
4 60 61 62 63
4 64 65 66 67
4 68 69 70 71
4 72 73 74 75
4 76 77 78 79
4 80 81 82 83
4 84 85 86 87
4 88 89 90 91
4 92 93 94 95
4 96 97 98 99
4 100 101 102 103
4 104 105 106 107
4 108 109 110 111
4 112 113 114 115
4 116 117 118 119
3 120 121 122
4 123 124 125 126
4 127 128 129 130
4 131 132 133 134
4 132 135 136 133
4 135 137 138 136
4 137 139 140 138
4 139 141 142 140
4 141 143 144 142
4 143 145 146 144
4 145 147 148 146
4 147 149 150 148
4 149 151 152 150
4 151 153 154 152
3 155 156 157
4 158 159 160 161
4 162 158 161 163
4 153 162 163 154
